<mxfile host="app.diagrams.net" modified="2022-09-16T06:58:47.337Z" agent="5.0 (Windows NT 10.0; Win64; x64) AppleWebKit/537.36 (KHTML, like Gecko) Chrome/105.0.0.0 Safari/537.36" etag="CxYD0-pvcnbGV0L8kSTk" version="20.3.0" type="github">
  <diagram id="n3detYHSvYrekd8tQFwR" name="PÃ¡gina-1">
    <mxGraphModel dx="229" dy="128" grid="1" gridSize="10" guides="1" tooltips="1" connect="1" arrows="1" fold="1" page="1" pageScale="1" pageWidth="827" pageHeight="1169" math="0" shadow="0">
      <root>
        <mxCell id="0" />
        <mxCell id="1" parent="0" />
        <mxCell id="JnTThAAoBRkZd4ELU4l4-1" value="" style="rounded=0;whiteSpace=wrap;html=1;fillColor=#050505;" parent="1" vertex="1">
          <mxGeometry width="600" height="600" as="geometry" />
        </mxCell>
        <mxCell id="JnTThAAoBRkZd4ELU4l4-2" value="C:\Users\2dam&amp;gt;" style="text;html=1;strokeColor=none;fillColor=none;align=left;verticalAlign=middle;whiteSpace=wrap;rounded=0;fontColor=#15CF00;" parent="1" vertex="1">
          <mxGeometry x="10" y="570" width="100" height="25" as="geometry" />
        </mxCell>
        <mxCell id="JnTThAAoBRkZd4ELU4l4-4" value="" style="rounded=0;whiteSpace=wrap;html=1;fontColor=#15CF00;fillColor=#15CF00;" parent="1" vertex="1">
          <mxGeometry x="130" y="582" width="10" height="5" as="geometry" />
        </mxCell>
        <mxCell id="JnTThAAoBRkZd4ELU4l4-5" value="" style="rounded=0;whiteSpace=wrap;html=1;fontColor=#15CF00;fillColor=#FFFFFF;strokeColor=none;" parent="1" vertex="1">
          <mxGeometry width="600" height="30" as="geometry" />
        </mxCell>
        <mxCell id="JnTThAAoBRkZd4ELU4l4-8" value="Comandos&amp;nbsp;" style="text;html=1;strokeColor=none;fillColor=none;align=center;verticalAlign=middle;whiteSpace=wrap;rounded=0;fontColor=#030303;" parent="1" vertex="1">
          <mxGeometry x="30" width="60" height="30" as="geometry" />
        </mxCell>
        <mxCell id="JnTThAAoBRkZd4ELU4l4-9" value="" style="shape=cylinder3;whiteSpace=wrap;html=1;boundedLbl=1;backgroundOutline=1;size=5.423728813559313;fontColor=#030303;fillColor=#FFFFFF;" parent="1" vertex="1">
          <mxGeometry x="10" y="5" width="10" height="20" as="geometry" />
        </mxCell>
        <mxCell id="JnTThAAoBRkZd4ELU4l4-10" value="x" style="rounded=0;whiteSpace=wrap;html=1;fontColor=#030303;fillColor=#FF1717;strokeColor=none;" parent="1" vertex="1">
          <mxGeometry x="540" width="60" height="30" as="geometry" />
        </mxCell>
        <mxCell id="JnTThAAoBRkZd4ELU4l4-11" value="" style="rounded=0;whiteSpace=wrap;html=1;fontColor=#030303;fillColor=#CCC9C8;strokeColor=none;" parent="1" vertex="1">
          <mxGeometry x="480" width="60" height="30" as="geometry" />
        </mxCell>
        <mxCell id="JnTThAAoBRkZd4ELU4l4-12" value="" style="rounded=0;whiteSpace=wrap;html=1;fontColor=#030303;fillColor=none;" parent="1" vertex="1">
          <mxGeometry x="505" y="10" width="10" height="10" as="geometry" />
        </mxCell>
        <mxCell id="JnTThAAoBRkZd4ELU4l4-13" value="&lt;font style=&quot;font-size: 15px;&quot;&gt;-&lt;/font&gt;" style="rounded=0;whiteSpace=wrap;html=1;fontColor=#030303;fillColor=#CCC9C8;strokeColor=none;" parent="1" vertex="1">
          <mxGeometry x="420" width="60" height="30" as="geometry" />
        </mxCell>
        <mxCell id="JnTThAAoBRkZd4ELU4l4-14" value="C:\Users\2dam&amp;gt; python3 trenecito" style="text;html=1;strokeColor=none;fillColor=none;align=left;verticalAlign=middle;whiteSpace=wrap;rounded=0;fontColor=#15CF00;" parent="1" vertex="1">
          <mxGeometry x="10" y="300" width="590" height="25" as="geometry" />
        </mxCell>
        <mxCell id="JnTThAAoBRkZd4ELU4l4-15" value="" style="shape=image;verticalLabelPosition=bottom;labelBackgroundColor=default;verticalAlign=top;aspect=fixed;imageAspect=0;image=data:image/png,iVBORw0KGgoAAAANSUhEUgAAArgAAAFDCAYAAADRfX1oAAAAAXNSR0IArs4c6QAAAARnQU1BAACxjwv8YQUAAAAJcEhZcwAADsMAAA7DAcdvqGQAAD4rSURBVHhe7d0JfFTlvf/x70ySSUjCEhAhbAKyb4JEUXZrbW1d/r23UhD8c4VrtVjQglsl/G+9LeBVLPYqXFFBbLXiTotaRXpbrchSiGEJ+yoQgoGwRgLZnn8SDpCQSSbJrOfk8369vi+d55nMPHnOmZMfM8+c45JkSgIAAAA4gtv6LwAAAOAIFLgAAABwFApcAAAAOAoFLgAAAByFAhcAAACOQoELAAAAR6HABQAAgKNQ4AIAAMBRKHABAADgKBS4gC+uRho2b7e2PtVfDaymwIhTn19naO/Cm5RUek3BunLs+AL0/L5E+vjsrsr5Zf4ABFfppXoJIVUkuuNEs+rIP8y/t42q2OduZK66+znz6dajpsAYk5+1yrw8rodJcNWwvyRRrcaavx1Za6Z0irn4uLVMleMLQII6vhDNj6/4M39BHV8A9q9ISHXzG4rtW+fYZH6riiuxj7nv92nmcFHJ4ItzzLo/TjRXN3J5vW9EhvmP7Nhj+3htJISUJdZcNXOnOblspLncXb49wfSbtsoc2fqauX9oe9MoJta0HPSIWXZ4t3nu+sQa9FuP47rM/Pjj42bPrH4m7sJj1yZVjS9ACdr4QjU/vuLn/AVtfAHav8IeH/Mb9O1b19hlfquIq6EZ+kKmMUc/Mo/8IMX0v+kXZvFhY7555bumiS0KROY/smOb7eO1kRBSmtg+ZvquM2b1PW1MVLl2T9dHzJqDH5mxbaPL3T/aXDk5zexdMNgk+ehPuNDmNsljl5u8PU+ZvnHn22qRKsYXuARnfL7mL2Dz4yt+z19wxhe4/SvM8Tm/Qd6+dUzN988ITePvmXdOGpM+qYOJLmuLMm3uWWWKTn9gbkuK/HcRmf/Ijl22D2twgWq4L0vRTW2PaNX6HBVZbVKsuo0dp8Zv/krv7Ddq/p3/0JJNB3Vw61KlditSXLtW6l1tfzPFWI8kFevYhuU61PpGDWheUgLUkvfxBVIwxudr/gI3P774P3/BGF8g96/w8j2/wd2+dVOb/TMyeVoNUJ+Gh7Um7RsVlrUUKWfdKmU16KWB7TxlLZGL+Y9s9tk+FLhANWKTe6uV+7C2ZxdYLSXcSeo7tKHSP9qms81v10tv3avT/z1CN42Zp9wh16h5bLPq+2Mqvuzys7cr29VKvZJrf+DzOr4AC/j4fM1fAOfHl0DMX8DHF+D9K5xqMr/B3L51Usv9MxJFN26lxjqpb05d/GdF4alDJS2N1apxtNUSoZj/yGaj7RP5ewoQRi5PQsm/V/OVV1BstZSITlK7hie160i+4nuP1IB9T+vxV77UprR39MTUpcopOQBU21/uoUqZ/NMqKHmWxNjavxy9ji/AAj4+X/MXwPnxJRDzF/DxBXj/CqeazG8wt2+d1HL/RIAx/5HNRtsnQo4oQGQqyj2sXCWoaXz5j09dcrvdinK7Sv7XJVOQp4LSFT8lCs+cVZHP/orcCU0VX/Ish3Nr/yG59/EFVuDHF7r58SUQ8xf48QV2/wqnmsxvMLdv3dhnfqtSeDJLJ9RILRpenPfohi1LWk7o4IlzH5pHLuY/stln+1DgAtXIz0zTroJk9Wld7uPTwhztPt5E3VvFKS/jPX3V7n797Pqmiknoobum3KjLin30X/Kqi23dV60LdyvtwFmrpea8ji/AAj4+X/MXwPnxJRDzF/DxBXj/CqeazG8wt2+d1HL/jET5mf9URm5zXdO/hc59IB6lZn2vU3Jehlbsyy9riVjMf2Sz0faxwa4ChI85nqb3M+J17dB2uvAnuviY1n58WP1GpSgx+33d+9NPNfC1nTq860394MhG7T+erTXV9Z8sKPuK5zkxajNkkBptXaw1xy621pTX8QVUEMbna/4COD+++D9/QRhfQPev8PI9v8HdvnVSq/0zQp1cqTlvfqO+//m8fvH9/rr6uxP13MwBynnrv/XF8QgfPfMf2Wy2fUrHQgjxmijT9t+/MCc2PGI6x1xsj247zvw1e735dUqicVW4f836LyTmSjM5/aRZNaG9dTqZ2sb7+AKWII0vdPPjK37OX5DGF7D9K+zxMb9B3751i33mt+q4GvYzP399nckxpY6aDYsmmf42udAA8x/ZsdH28dpICLHiSvqeeS1zh3nq6gbl2mNMu9GLzL6c1eb58UNMx6Q440lMNle2TSw9914N+s8lts90szXrbXNbs7of+LyPLzAJ3vhCNz++4s/8BW98gdm/IiHVzW8otm/dYp/5dWaY/8iObbaP10ZCyIXEmCvGvGBendzHNKjQHm2aD7zf/M/STSb7TOm/0k+bbfO/b5q6atofZ7pPfMW8NO5K46nwuLVNVePzN8EeX6jmx1fqOn/BHp+/+1ekpKr5DdX2rWvsMr9ODfMf2Yn87eOy/gcAAABwBLf1XwAAAMARKHABAADgKBS4AAAAcBQKXISfq5GGzdutrU/1VwOrKTTi1OfXGdq78CYlla5GBwAAjkCBi7CL7jBWT91xQLPmrFOe1RYaZ7Rp3tPafduTGndljNUGAADsjgIXYRarnvf8Qj3S5+qDzNBfxboo6y+au6aTJt3XS3FWGwAAsDcKXIRXbFeNGNlGW976UjnFVlsomaNasShDLe8YpW5UuAAAOAIFLsLKfVmKbmp7RKvW5yj079+WKtaxDct1qPWNGtA8ymoDAAB2RoGLsIpN7q1W7sPanl1gtYRefvZ2ZbtaqVeyx2oBAAB2RoGLsHJ5EhSrfOUVhGN9wjkm/7QKSkaRGMvLAQAAJ+AvOsKqKPewcpWgpvHhWx7gTmiq+JJRHM4NzyIJAAAQWBS4CKv8zDTtKkhWn9bhWx4Q27qvWhfuVtqBs1YLAACwMwpchJU5nqb3M+J17dB2Ck+JG6M2Qwap0dbFWnPMWG0AAMDOKHARXkUH9OG8tUoecauuCMe1FmLa6ZZRbbX+pSXaV2i1AQAAW6PARZgV6cD7v9GSZvfqnt6hvVBvqdju43Rfy0804+2vRX0LAIAzUOAi7Myxv2vao39Vi2GdFdoSN04dh7bSP6Y+rqU5LE8AAMApXCXhLzsAAAAcg3dwAQAA4CgUuAAAAHAUClwAAAA4CgUuJFcjDZu3W1uf6h/iL3n5Eqc+v87Q3oU3Kal0tTgAAEANUOBC0R3G6qk7DmjWnHXKs9rKuBvpqruf06dbj6rAGOVnrdLL43oo4XyxGex+ndGmeU9r921PatyV4ThJLgAAsKvSsyiQeptYc9XMnebkspHmcnf59gTTb9oqc2Tra+b+oe1No5hY03LQI2bZ4d3muesTQ9BvjcN1mfnxx8fNnln9TNyFsRFCCCGEVBuvjaS+JLaPmb7rjFl9TxsTVa7d0/URs+bgR2Zs2+hy9482V05OM3sXDDZJQe5PuNDmNsljl5u8PU+ZvnHn2wghhBBCqg5LFOo592UpuqntEa1an6Miq02KVbex49T4zV/pnf1Gzb/zH1qy6aAObl2q1G5FimvXSr2D2t9MFxckFOvYhuU61PpGDWheUoIDAAD4QIFbz8Um91Yr92Ftzy6wWkq4k9R3aEOlf7RNZ5vfrpfeulen/3uEbhozT7lDrlHz2GbB7Y+puFvmZ29XtquVeiV7rBYAAICqUeDWcy5PgmKVr7yCYqulRHSS2jU8qV1H8hXfe6QG7Htaj7/ypTalvaMnpi5VTkkBHNT+ckMpZfJPq6BklImx7K4AAMA3KoZ6rij3sHKVoKbx5T/+d8ntdivK7Sr5X5dMQZ4KSle0lCg8c1ZFQe+vyJ3QVPElozyce2kPAABAZRS49Vx+Zpp2FSSrT+tyH/8X5mj38Sbq3ipOeRnv6at29+tn1zdVTEIP3TXlRl1WHOT+S/bK2NZ91bpwt9IOnLVaAAAAqkaBW8+Z42l6PyNe1w5tpwslbvExrf34sPqNSlFi9vu696efauBrO3V415v6wZGN2n88W2uC2X+yoOwrkOfEqM2QQWq0dbHWHLvYCgAAUJ3SqoHU20SZtv/+hTmx4RHTOeZie3Tbceav2evNr1MSjavC/UPTfyExV5rJ6SfNqgntTbS3fkIIIYSQyvHaSOpRXEnfM69l7jBPXd2gXHuMaTd6kdmXs9o8P36I6ZgUZzyJyebKtoml55YLQf+5xPaZbrZmvW1ua+a60EYIIYQQ4iNeG0m9Soy5YswL5tXJfUyDCu3RpvnA+83/LN1kss+YEqfNtvnfN01doeqPM90nvmJeGnel8ZTdJoQQQgjxHZf1PwAAAIAj8CUzAAAAOAoFLgAAAByFAhcAAACOQoFrB65GGjZvt7Y+1V8NrKbIEKc+v87Q3oU3Kal0NTcAAEAEoMC1gegOY/XUHQc0a8465VltkeGMNs17Wrtve1Ljroyx2gAAAMKLAjfixarnPb9Qj/S5+iCzyGqLHEVZf9HcNZ006b5eirPaAAAAwokCN9LFdtWIkW205a0vlVNstUUSc1QrFmWo5R2j1I0KFwAARAAK3AjnvixFN7U9olXrcxR579+WKtaxDct1qPWNGtA8ymoDAAAIHwrcCBeb3Fut3Ie1PbvAaok8+dnble1qpV7JHqsFAAAgfChwI5zLk6BY5SuvIBLXJ5xj8k+roGSUibHsTgAAIPyoSCJcUe5h5SpBTeMj9+N/d0JTxZeM8nBuZC6iAAAA9QsFboTLz0zTroJk9WkduR//x7buq9aFu5V24KzVAgAAED4UuBHOHE/T+xnxunZoO0VmiRujNkMGqdHWxVpzzFhtAAAA4UOBG+mKDujDeWuVPOJWXRGJ11KIaadbRrXV+peWaF+h1QYAABBGFLgRr0gH3v+NljS7V/f0jqwL9ZaK7T5O97X8RDPe/lrUtwAAIBJQ4NqAOfZ3TXv0r2oxrLMiq8SNU8ehrfSPqY9raQ7LEwAAQGRwlYTKBAAAAI7BO7gAAABwFApcAAAAOAoFLgAAAByFAhcAAACOQoELAAAAR6HABQAAgKNQ4AIAAMBRKHABAADgKBS4AAAAcBQKXAAAADgKBS4AAAAchQIXAAAAjkKBCwAAAEehwAUAAICjUOACAADAUShwAQAA4CgUuAAAAHAUClwAAAA4CgUuAAAAHIUCFwAAAI5CgRsKrkYaNm+3tj7VXw2sptCIU59fZ2jvwpuU5LKaAAAAHI4CNwSiO4zVU3cc0Kw565RntZVxN9JVdz+nT7ceVYExys9apZfH9VDC+WLU336d0aZ5T2v3bU9q3JUxVhsAAIDzGRLMxJqrZu40J5eNNJe7y7cnmH7TVpkjW18z9w9tbxrFxJqWgx4xyw7vNs9dnxiAfut5XJeZH3983OyZ1c/EXXhuQgghhBBHx2sjCVRi+5jpu86Y1fe0MVHl2j1dHzFrDn5kxraNLnf/aHPl5DSzd8Fgk+Rnf8KFNrdJHrvc5O15yvSNO99GCCGEEOLcsEQhyNyXpeimtke0an2Oiqw2KVbdxo5T4zd/pXf2GzX/zn9oyaaDOrh1qVK7FSmuXSv19qu/mS4uSCjWsQ3Ldaj1jRrQvKTEBgAAcDgK3CCLTe6tVu7D2p5dYLWUcCep79CGSv9om842v10vvXWvTv/3CN00Zp5yh1yj5rHN/OuPqbhZ87O3K9vVSr2SPVYLAACAc1HgBpnLk6BY5SuvoNhqKRGdpHYNT2rXkXzF9x6pAfue1uOvfKlNae/oialLlVNSAPvVX+6pSpn80yooGUViLJsbAAA4HxVPkBXlHlauEtQ0vvzyAJfcbrei3K6S/3XJFOSpoHTFSInCM2dV5Hd/Re6EpoovGcXh3Et7AAAAnIcCN8jyM9O0qyBZfVqXWx5QmKPdx5uoe6s45WW8p6/a3a+fXd9UMQk9dNeUG3VZsZ/9l2zV2NZ91bpwt9IOnLVaAAAAnIsCN8jM8TS9nxGva4e204USt/iY1n58WP1GpSgx+33d+9NPNfC1nTq860394MhG7T+erTX+9J8sKPsK4TkxajNkkBptXaw1xy62AgAAOFlp1UOClijT9t+/MCc2PGI6x1xsj247zvw1e735dUqicVW4f2D6LyTmSjM5/aRZNaG9ifbWTwghhBDivHhtJAGMK+l75rXMHeapqxuUa48x7UYvMvtyVpvnxw8xHZPijCcx2VzZNrH03G0B6D+X2D7Tzdast81tzVwX2gghhBBCHB6vjSSgiTFXjHnBvDq5j2lQoT3aNB94v/mfpZtM9hlT4rTZNv/7pqkrUP1xpvvEV8xL4640ngvPSQghhBDi7Lis/wEAAAAcgS+ZAQAAwFEocAEAAOAoFLgAAABwFApcAAAAOAoFLgAAAByFAhcAAACOQoELAAAAR6HArUL7SetkjPGazY/1UOeg9ndRjDUOAAAA1A4XeqiC57Ku6nFFoqKs2xcV69v9m7WnuL26B7F/W/ZZNgwAAEAdUOBWxRWl6KjS6anMFBWqqKQ0DWo/WwUAAKBOWKJQhfYT01RQUOA1Gx/toc5B7WeJAgAAQF3xDm4VWKIAAABgTxS4AAAAcBSWKAAAAMBRKHABAADgKBS4AAAAcBQKXAAAADgKXzJD5InrqQnTJ6hnnHW7kih5oouUX2jdrMTm/We2asETc5Sea91G/VLf9/9g9/P6AuoFClwAAAA4CksUAAAA4CgUuD7F67oX9itz/iAlWC2BFezHB2BfHB/8c3H+ANQvti1wYzo9rAxjZMpyWplfLdaMH3dSg9JFF7ChGHV5dL3yNqWqu8dqqsc83aYq48wmpQZrMlzN9JMvzr9+ymXFGF1ek9eQvz8PAEAQ2fwd3ON6965rdfXgEXrib0004d01emNUa1W+/C0iXuIATX6wo5bPfEXb8622eix/+0LN/LytJj50vRpabQFljuvTcf2UkjJcD60tub3uUd2QkqJ+//YXHa3Jqnx/fx4AgCCyd4Fr8nV09yalf/mRXn7kRxrx+0L9aMb96hlr9cMm3GpxS6pGu9/S9CVZKrJa67XiLH0w402ZkdN0e3Iw/slWpOM71yktbZ12nCiWObFT69LStG7HMVX55fQK/P15AACCxzlrcM0JrX17tc52uFkDW/Aerq14Ouvu1OHKnDtbK09ZbdCpVbP1/N7Bmjq+i1i1EUjRaj9pXeXlFVY2P9ZDnf3q76IY65kAAOHhqC+ZFeR8rWNqpg7N+PNiJ4kDJuuBDss1Y8E2sTqhnPztWjjjc7Wd+JCuD8o6hfqqUAcXjVS/lBSlVMrV+teFu7TPr/6veRcbAMLMUQXu+aV/fMfFRtwtdWvqaLnfmq4lWSxOqKhYhz6coUVmpKbdnsza8gDKz9mpjPXrtb5SNmrH4bM662c/y5ABILwcVeB6mrVTko5qT06B1YJI5+l8t1KHHdDc2SvF6gQvcldr9nN7NHjqeHVhnUKARKv9xDQVFBR4zcZHe6izX/0sUQCAcHNOgetqrP4jrlPsnk+04hveCbSHRA2Y8oDaL5+pBdtYnOBdvna8OlOft52oh1inECAsUQCA+qD00zTbJabTwybDHDPvjLnG9Bv4Q3PPrL+Zo+a4+dPo1ibKy/3rnnhz3Qv7Teb8QSbBa7+/CfbjR27cLe80S09mmQXDG3ntJ+eTaAbPyzQnl40xyVHe+uuSKNOkU1/Tv/8wM2WNMSb9ETO8f3/Tt3OSifZ6/0vj78+TmqX+Hh8Ck4vz572fEOLgeG2M+JwrcM87Y7LSF5uZd3Q2DVze71/3UOAGJx7T7fGNJm/zNNPD462flI+n62NmQ94mk9rd47W/1nE1Mz/5wnr5lLdijLm8Jq8hf3+e1DAUuP6FApeQ+hrbLlEo2PmMerlccpUlTsn9/kVT392hvNJfC5Gv4XWa8kB7LZ+5QKxO8C1/x6ua8VmbwF34weTo7SHnXz/lMvCPyq7Ja8jfnwcAIIgc9SUz2EdMUhPtmDtJkxdzYYcaKf5GS6ZM1JxtTZTEN5gAAKgWBS7ComDfEs2a/qoyvrUa4FPeltc0Y9aftY+ThAAAUK3SU8ZG5AeKE56Zo55x1o1LndmqBU/MUXqudbu24npqwvQJNXx8txp3G6jero1aseWEisvuEEheHt/X+BQlT3SR8qv8qnaE9/u7/eo7f/cPX/Nfq9eHF5G+/wZ7/wvo9qmHxwd/+6uYv+Ul8weg/ojYAhcAAACoC5YoAAAAwFEcUODG67oX9itz/iAlWC2VuBpp2Lzd2vpUfzWwmmomTn1+naG9C29Skm2v/1uD+YGDhXv7s//5p77PH/sPgLqpF+/gRncYq6fuOKBZc9Ypz2qrmTPaNO9p7b7tSY27kq+u10ZMp4eVUfyNXrw+3mqRGvSfrf3FW/R4V4883aYq48wmpXbn+rM1E6Muj65X3qZUMWUAAFSvHhS4sep5zy/UI32uPsis/QmpirL+orlrOmnSfb1U5Xc6UGv52xdq5udtA3deV6dLHKDJD3bU8pmvaDvnDQYAoFrOL3Bju2rEyDba8taXyqnLKRDMUa1YlKGWd4xSNyrcwCnO0gcz3pQZOU23J0dZjfDOrRa3pGq0+y1NX8J5gwEA8MXxBa77shTd1PaIVq3PqWNhUKxjG5brUOsbNaA5hVggnVo1W8/vHayp47uIT92r4emsu1OHK3PubK08ZbXBxqLVftI6GWO8ZvNjXcSCKADwj+ML3Njk3mrlPqzt2XU/O35+9nZlu1qpVzJlWK24Lte9K7698If79NrJalP+y3r527VwxudqO/EhXc86hSolDpisBzos14wF28TqBCco1MFFI9UvJUUplXK1/nXh1yX3AAD4w/EFrsuToNiSsiCvoO6XaDD5p1VQ8iiJsZdOVzON+KzwQgFX9MVoXV7hbAv+9tvdCf1p/OALf7wHjV2kI1bPOcU69OEMLTIjNe32ZPH+uBfulro1dbTcb03XkiwWJzhFfs5OZaxfr/WVslE7Dp/l5OQA4CfHF7hFuYeVqwQ1ja97+eROaKr4kkc5nHtpgXFcn4ztpZ49e57LXR8qp8JfJn/7bc6cVfbWdKWlpZUlffMhnbn098tdrdnP7dHgqePVhTfIK/F0vlupww5o7uyVYnWCU0Sr/cQ0FRQUeM3GR1miAAD+cnyBm5+Zpl0FyerTuu7VU2zrvmpduFtpB85aLecV6dS+rdq8eXNZtn598pJ1vv721wf52vHqTH3edqIeYp3CJRI1YMoDar98phZsY3GCc7BEAQCCzfEFrjmepvcz4nXt0HZ1/CJTjNoMGaRGWxdrzTE+OAyG4kMfavobxfrJtNvFCRUucre8TdPudOntGUvE6gRnyT+yTeusTzYqJl1bs1miAAD+cnyBq6ID+nDeWiWPuFVX1OVzv5h2umVUW61/aYn28bZKkOTqn88+p72Dp2o86xQsHnUZN1VDD8zVb1ectNoAAEBNOL/AVZEOvP8bLWl2r+7pXbsL9ZaK7T5O97X8RDPe5mPD2ijY+Yx6uVvovpWnrRYpL22K2rq760kvH7fn73hVMz5rw4Ufzmt4naY80F7LZy4QqxMAAKidelDgSubY3zXt0b+qxbDOql2JG6eOQ1vpH1Mf11JHffsrAhV/oyVTJmrOtiZK4hs2iklqoh1zJ2nyYi7sAABAbdWLAlcq0Nd/nKC7n92gPKulZs5oy5zxunfhLs4/GgJ5W17TjFl/1r66n7LYMQr2LdGs6a8q41urAQAA1FjpWVdt/takW427DVRv10at2HJCNTrbbVxPTZg+QT2ruvTuma1a8MQcpedat22tDvMTbr62j6LkiS5SfpVrRmzeH9D9L9zb34b7X0TxMn/Bfn342v9C+vwO3H/q+/GN/ur7HVV/hJcDClwAAADgonqyRAEAAAD1BQVu2MXruhf2K3P+ICVYLYEV7McPN+aveuEev9P3v2DzNX/+zm+k/7y/jx/pnP77AeHjoAI3Rl0eXa+8TanqzqlUwy6m08PKKP5GL14fb7VIDfrP1v7iLXq8KxsIAABvPN2mKuPMJqXavZhpdKPeOG5kchfrliZWWwg5p8BNHKDJD3bU8pmvaDunPAAAADaUv32hZn7e1vbnhU/oM0rD3Tu0pXCg7rw69L+JQwpct1rckqrR7rc0fQnnDQUAADZVnKUPZrwpM3Kabrft9esbqPsd31Pc336lXy1164aRvXXx89zQcEaB6+msu1OHK3PubK08ZbUBAADY0KlVs/X83sGaOr6LbLlQIbaz/uXWJH216G/67M21Svz+j9W9ylPjBYcjCtzEAZP1QIflmrFgGxdkiCSuy3Xvim9ljCnL6bWT1ab0xHQAAKBq+du1cMbnajvxIV1vw3UKMe1v0b+02qK3VhxRzuo3tbH5bbq9U6zVGxr2L3DdLXVr6mi535quJVksTogsJ/Sn8YOVkpJSlkFjF+mI1QMAAKpSrEMfztAiM1LTbk+WvRYqRKvN93+iDrve0WeHilSc/YXe2dFOP/5BO4XySvy2L3A9ne9W6rADmjt7pVidEGHMWWVvTVdaWlpZ0jcf0hkuKwIAgG+5qzX7uT0aPHW8uthpnUJUS914Z1/F9Zql7flGpmCXfndVrHqOvEmtoq37hIDNC9xEDZjygNovn6kF21icAAAAnCJfO16dqc/bTtRDNlqn4L5sqMZcla3XR/ZXz549y9J/5OvK7nWnhl8eurLT1gWuu+VtmnanS2/PWCJWJwAAACcpPvShpr9RrJ9Mu132OKGCS0kD79K1RSu16NOvtHnz5rJ8tfQNrShI0ZhBzUruERo2LnA96jJuqoYemKvfrjhptQEAADhFrv757HPaO3iqxttinUIjXTN6sGIzlmh9+dLs1DotXh+jgWOuVZMQVbj2LXAbXqcpD7TX8pkLxOqEyFOw8xn1crfQfStPWy1SXtoUtXV315NsMAAAaiR/x6ua8Vkbm1z44YQ+GdFI0de/osxiq6lUcZb+MDhaiT/6SMdC9F0c2xa4MUlNtGPuJE1ezIUdAACAQxV/oyVTJmrOtiZKCuVpCGzOtgVuwb4lmjX9VWV8azUAAAA4UN6W1zRj1p+1r8BqgE+lKyE4cVNYudW420D1dm3Uii0nVP4d/cAI9uOHG/NXvXCP3+n7X7D5mj8v/XE9NWH6BPWs6qpBZ7ZqwRNzlJ5besPf7RPs5/d3fGEQ0vlHveNr/1KUPNFFyi+0blYS5P4K+3d4UeACAADAUWx9mjAAAADgUjYocON13Qv7lTl/kBKsFmcJ9u/H/AH25ef+3fhWfVpoZExJNvxCHUN4FSFFX6Gfp1vPbf6hO5pa7bUS6a9vjj9A1cL7+uAdXARFTKeHlVH8jV68Pt5qkRr0n639xVv0eFc7XXMQsLn8g5ozIF6uPr/T7irX1QVB4dea28+l+JRndeCs1QYAIUKBCwAAAEehwAUAAICjUOACAHBBtNpPWmetHa6czY91EefaByIfBS6Cx3W57l3x7YU/DKfXTlabEF2DGgDqplAHF41Uv5QUpVTK1frXhV+X3ANApKPARRCd0J/GD77wx2HQ2EU6YvXYQzON+KzwQoFe9MVoXV6hQKef/mD2I1zyc3YqY/16ra+Ujdpx+CwnjwdsoPRwGuGv1dLTTGzTezGj1OWeL+W8K/MG+/cLz/yVnkUhffsj+nJQB9238nRZW+lZFLav+YH+p/tVenJbflmb/4L5+0WpYbvOapt47t+Bxd8e0I6vT6qo7FYp+ukPZn8pP/fv0tOEZb2obcM7adI/86zG0Cp73X+Zosmthurdo1ZjjYXj+FW6RGGt9jx3lXW7oi2/7Kqrntquc1dMDc/xFbCH8L8+SgvcCE68ue6F/SZz/iCT4LXf7gn27xee+SspcE1G8TfmxevjL7SV/KEz+4u3mMe7eirc1784ff8g9Tt+7t+NbzWfns40z1/bwHt/CFL2uj/zD3NHU+/91Sc8r2/PZV1N3/79Tf9K6We6XR5rXBfuy/GHkKoT3tfHubcOAABAmfwj27QuLU1plZKurdksUQDsgAIXAAAAjkKBi6Ao2PmMerlbXFh/WyovbYraursHcP0tAABAZRS4AOBYRkXuVpq4+rQK105Sh2irORSirtDPVhecOz1gdBEf6wMIKQpcAHCqEx/pB3EuuVwuRac8rz2hPIFr0deaNyCm7Lld0TfovVqfQQEA6i4Epwlzq3G3gert2qgVW06o2Gp1jmD/fvVw/uJ6asL0CeoZV3YHL6LkiS5SflV/rM9s1YIn5ig917oNhE0QXr/+vj5C+vqJ9OOX04+vgD/s/fqwwXlwAQAAgJpjiQIAAAAcJSQF7nUv7Ffm/EFKsG6jNkqvBML81Z3D56/0SlWF5y71ajb8Qh3Lf4ko+gr9PN3qM//QHU2t9vL8/Xn4UN9fv5H++3N8Bap28fVhR7yDC69KL7WbUfyNXrw+3mo5d8nN/cVb9HhXj9USSDHq8uh65W1KVfdgPLztVTM/+Qc1Z0C8XH1+p93l11UWfq25/VyKT3lWB85abd74+/NeeLpNVcaZTUplYwIAwoACF5EhcYAmP9hRy2e+ou2cJrcym81P/vaFmvl5W0186Ho1tNoAAAgVClxEALda3JKq0e63NH1JloqsVpxnw/kpztIHM96UGTlNtydHWY0AAIQGBS7Cz9NZd6cOV+bc2Vp5ymrDRTadn1OrZuv5vYM1dXwXsVABABBKFLiomuty3bviW+tLRubcFYlKTywXYIkDJuuBDss1Y8E2sTqhskicn5g2t+upT3foRGGBcja8p9/c2V8tEpLU+eaHNP3O9oopvVP+di2c8bnaTnxI17NOAQAQQhS4qMYJ/Wn8YKWkpJRl0NhFOmL1BIy7pW5NHS33W9O1JIvFCZVE5PxEq9X3RqnNl7/WT264WT/7w1Hd8N9rdSj3qLYvulV5u47q3HfVinXowxlaZEZq2u3JYqECQquZRnxWeOEf6EVfjNblQfgHOoDIRIGLqpmzyt6arrS0tLKkbz6kMwG+LIin891KHXZAc2evFKsTKovM+SnU/j/cpbv+8zUt/eJ/9c4zP9XgVo3UukOyGl52g2b88+TFq8fkrtbs5/Zo8NTx6sI6BYTUcX0ytpd69ux5Lnd9qBwuawTUGxS4CKNEDZjygNovn6kF21icUFnkzk9xYXHFSyAWntLBvYeUW+lN5nzteHWmPm87UQ+xTgEhVaRT+7Zq8+bNZdn69Um+wArUIxS4CBt3y9s07U6X3p6xRKxOqMwp81N86ENNf6NYP5l2uzihAgAgFChwESYedRk3VUMPzNVvV5y02nCRk+YnV/989jntHTxV41mnAAAIAQpceFWw8xn1crfQfStPWy1SXtoUtXV315OB+Li84XWa8kB7LZ+5QKxO8MJh85O/41XN+KwNF34AAIQEBS7CIiapiXbMnaTJi7mwgzc1nx+jIncrTVx9WoVrJ6lDtNVcKuoK/Wx1wbnTu0UXVVwze4G/P19Dxd9oyZSJmrOtiZLKziEGAEDwUOAiLAr2LdGs6a8q41urARXUeH5OfKQfxLnkcrkUnfK89pw7P9c5RV9r3oCYsj5X9A1676jVXp6/P18LeVte04xZf9a+AqsBAIAgKT0rYNBPnNK422D1dm3Uii0nVGy1VSuupyZMn6CecdbtSqLkiS5Sfvk/xhXYvP/MVi14Yo7Sc0tvuEvmb2DF+Qv2/FR4fi/8ff6QPn4Y5s/ffl/zY3dOf3372v/qlUj//ev79gGqc/H1sbzk9WE3ISlwAQAAgFBhiQIAAAAcJSQF7nUv7Ffm/EFKsG4HVnyQH9+XcD8/6rXGt+rTwnOXIjUbfqGO5b8kFn2Ffp5u9Zl/6I6mVnt5/v68L8F+/IhX348Pkf77c/wGqmbv10cEvYMboy6PrlfeplR151SZ8MXVTD/54nxxVC4rxtjjevOBHH/+Qc0ZEC9Xn99pd/l1oYVfa24/l+JTntWBs1abN/7+vC/BfnwvYjo9rIwL83pamV8t1owfd1IDO+wbAAC/RU6BmzhAkx/sqOUzX9F2zosKX8xxfTqun1JShuuhtSW31z2qG1JS1O/f/qKjdlhVbvfx28JxvXvXtbp68Ag98bcmmvDuGr0xqrW4mBoAOF+EFLhutbglVaPdb2n6Es6Lipoo0vGd65SWtk47ThTLnNipdWlpWrfjmKr88ntEsfv4bcDk6+juTUr/8iO9/MiPNOL3hfrRjPvVM9bqBwA4VmQUuJ7Oujt1uDLnztbKU1YbAASKOaG1b6/W2Q43a2CLcL+HG632k9ZVXJpSLpsf66HOEd3fXZ2q7e8iruUBINwiosBNHDBZD3RYrhkLtonVCQCCoSDnax1TM3VoFu7yq1AHF41Uv5QUpVTK1frXhbu0L6L7d2t/tf1f8ykEgLALf4HrbqlbU0fL/dZ0Lcly2uKEZhrxWeGFdzaKvhh9yReI6PevH6i580ubI2EXys/ZqYz167W+UjZqx+GzOmvzfpaRAwi3sBe4ns53K3XYAc2dvVLOW51wXJ+M7aWePXuey10fKqfCkZ9+//qBmvM0a6ckHdWenHBfKzha7SemqaCgwGs2PtpDnSO6v7s6VdvPEgUA4Vf6ZkbQS4bS86i9FzNKXe75UhUvrZ+oIS9u1186PqouN7+uur2BW3qetm1VPH4ohPv567vGuu2vR/Xn6DvUdPjikpLYbvwcf+l5ZrNe1LbhnTTpn3lWY0UN+s/W9i9TNLnVUL171Go8z9+f9yXYj1+F0tOEpW9/RF8O6qD7Vp4uOdI11nde2an/Hfay+nafqvUBPi1Z1bwfHzyXdVWPKxK9nNGhWN/u36w9xe3V3cb927LPv4sb6cdHjt9A1ez/+ig9DgU1JQWuyZw/yCRc0u5ueadZejLLLBjeqEJ77RJf5eOHJuF+/vqaKNOkU1/Tv/8wM2WNMSb9ETO8f3/Tt3OSifZ6/0hLgMbf+Fbz6elM8/y1Dbz3l6SkgDT7z/zD3NHUS7+/P+8rwX78KlJS4JoMc8y8M+Ya02/gD809s/5mjprj5k+jW5uSoszrzwQn9f34EOm/P8dvQqqOvV8fYVyi4FGXcVM19MBc/XbFSasNqCFXE31vYbrWrv1Mv00pud33af197Vql//6HamqHdbp2H78tNNEdr/9TX335vn7z3ROaN+Ia3bkok9MQAkA9EL4Ct+F1mvJAey2fuUDbOHUCasvk6O0hLrlcl2TgH5Vd+m+3SGf38Ue4gp3PqNeFeY1Tcr9/0dR3dyiPuQWAeiFsBW5MUhPtmDtJkxdzYQeg7oyK3K00cfVpFa6dpA7RVnOpqCv0s9UFOr12stpEF5V9ZlOZvz/vS7AfHwCAysJW4BbsW6JZ019VBqv6gbo78ZF+EHfuncrolOe1p/wJSIu+1rwBMefexYy+Qe95+wKXvz/vS7AfHwAAL0JyFoXG3Qart2ujVmw5oWKrLXDcJY8/MIiP70u4nx+VxPXUhOkT1DPOul1JlDzRRcqv8mz0Qe4/s1ULnpij9FzrNhysvh8fvPz+4X59Vnj9ReD46Kc/nP3+vj4i6O9bSApcAAAAIFTCfqEHAAAAIJAcUOCWnoh4vzLnD1KC1RJa4X5+AIhUwT4+cvwFgsfer68QFrgx6vLoeuVtSlV3j9WEoPF0m6qMM5uUGrLJDuz2Zfy1ZffxB1ID9f3NNhUfmq/vNL54UmFXo6Gad7BYO57sX3LYBgA4WegK3MQBmvxgRy2f+Yq2c97boMvfvlAzP2+riQ9dr4ZWW1AFePsy/lqy+/gDKk/rZ0/SH1z/pmcndNO5Ej1GnX76rMbHvKEHZqXrdFkbAMCpQlTgutXillSNdr+l6Usi57y3rob99PPX03Wk2MiYo9rw5oNKaeyQZcnFWfpgxpsyI6fp9uTKV4wPrCBsX8ZfC3Yff+CZY/+raY99pit/+V/6Py3ccjf/oWamdtOXj0/VsqOc6wQAnC401Zyns+5OHa7MubO18pTVVq1otZ+0rqToLC08K2fzY10UY92zzlyNNfx3n2jO8M365aCu6nLdQ0of+Dt9/NyNauL3pVJDMP4aOLVqtp7fO1hTx3ex3sUKklpv35ph/DVk9/EHRZEOLPqF/mv/zZr1y2EaNOUZ3X5olh58fZ+qPHsOAMBRSk8TFtQkDplnMk8tM2OSo7z2e4vnsq6mb//+pn+l9DPdLo81JTWodd94c90L+03m/EEmodzP+0zDm8w7J86av49uYUqq/JI2l7n8J8vMmdzF5ubGl9y32nh//pqP33ti2txunvp0hzlRWGByNrxnfnNnf9MiIcl0vvkhM/3O9ibeR39JAV3yOG7TctQn5mTWfDOsYeXnCFS8bV/GX/o4jD+8cZnGw180mcVnTF5RlllwYxOfrzsS6NTx+FzjBPvxCanPsf3ry2tj4OJuaUZ9ctJkzR9mGnrrryquKBMdHe01Ua7y963bBoi64n7zVcE+88zVcRfa4vr+l9lTsN78omN0hftWnyqev0bjb2ZGfFZoziv6YrS5vKwv2lwx/g3zx1/9X/P9ITeaEQ+/bJZnW3c69neTem1T077a/kYX/5AnDjEvHjxllo1JNlHn2wIZr9uX8TP+CElUW3PvmpLf66v7zRVRXvpJkEOBS4h9Q4FbbTxdf2k25m0203p4vPZ7T7RpP2nduT+4Xmx+rIv1DlNp6lrg/tykB63Aren4o0zDdt1Mjx49ytLtikYXigh3tLviu03RDU2r9i1NovVH2lf/xXhM119uMHmbUk13z6V9/qeq7cv4z4fxhzeNzW1/LTLFn/2LaeK1nwQ3FLiE2DcUuNUk0Qx58aA5tewuk1zpD2f1CfoShUY3mXdPVlyi0LxsicKfzA8iYIlCIONuOcp8cjLLzB/W0Gt/3VP37VubMP6qYvfxhyIUuOENBS4h9g0FbpVxt7zTLC35w7hgeCOv/YFJHTeAq4n57qvZxhx43fz7dZ1Np2vvNq9+bUzO6zebpApLIHzFDjtAohk8L9OcXDYmoIVQaLZvaRi/t9h9/KEJBW54Q4FLiH1j79dXEM+i4FGXcVM19MBc/XbFSastgpjj+tsDP9SDX/TWrJXbtWP175Sy+iH9cOKnOlY6NY6Sq38++5z2Dp6q8V0C9X34UG5fxl+Z3ccPAEBwVap6A5KGQ81LWafMsruC/eWUcP8Lwyb/wnG3MCM/PlH7L/tVlZBtXyuMv2LsPn5ST8I7uITYN7yD61VMUhPtmDtJkxdHzoUd6rXib7RkykTN2dZESTFWmx9Cvn0ZfwV2Hz8AAMHmtfK1T3gHlxBCIjO8g0uIfWPv15fL+p+K4npqwvQJ6hln3a4kSp7oIuVXdUmgM1u14Ik5Ss+1bgeVW427DVRv10at2HJCob8IZ7ifH4gw/h4//O33dfwJ9/ic3l9h/r0cHwP69yUIj09/9f2FJ3TS1ViNoqzblUT4+Omvvt/f11dI67/qeS9wAQAAAJsK4lkUAAAAgNALQIEbr+te2K/M+YOUYLWEVn1/fiCc2P/hZOzf/gn2/LF9/OPs+QvhO7gx6vLoeuVtSlV3TqVZxpXYR/f9Pk2Hi4xMcY7W/XGirm5UumrEHhh/eNl9/JGldscnT7epyjizSakRczDj+BpJYjo9rAxT8rosy2llfrVYM37cSQ0C9PK0++OHG9unfghdgZs4QJMf7KjlM1/R9nyrrT5zNdSQWR9r3m2H9PSt1yjl+7/Rnu89r49/d6Oa2GEnZfzhZffxR5paHp/yty/UzM/bauJD16uh1RZWHF8j0HG9e9e1unrwCD3xtyaa8O4avTGqtar8blat2f3xw43tUx9UOK1C7VOT00i4TYuRH5sTWfPNsIbe+v1JuE9jUcfnb/w9885JY9IndTDRZW1Rps09q0zR6Q/MbUmuyvePtDD+8CZixu+E0zTV7fjUcOhL5uCpZWZMcpTX/tAlmMfX+p667d8xnR42GcXfmBevjz/X5mpsbnz1sDG7Z5g+sZXvX9vY5/GDfXxg+5S1Rez2CW9C8w6up7PuTh2uzLmztfKU1VataLWftM56+71yNj/WRZF9rnnf409oNUB9Gh7WmrRvdO5sHUXKWbdKWQ16aWC7eB8/30Odw9rP+CN7/HxGXSu1Pj6dc2rVbD2/d7Cmju+isM54HcePEDIntPbt1Trb4WYNbBGE99js/vjhxvZxpNIPM0srXT+ULlLepvdiRqnLPV/qW6u1vMQh87TtL1fq0S43649ZNbvukueyrupxRaKXt9uL9e3+zdqWfdYauO/nDy7vz+9r/Ps7/k67Vt6kl/v01P/beLasJ6brL7V+66NaM6ytfrq5TbU/v6e4vbqHsZ/xR/b4/+0foXolhPv15z9vx6eYNrdr+iu/1c++016Fm5fof56cqTlLdqvRkPH6t6T39J+L9qpAbrUc9Rdtf/aAbutyjz4PU3FZl+Mraqpu+3dMp4eVvv0RfTmog+5bebqsLX7AXO1adYv+cHU3PZZ+pqytruzz+ME+PrB9Inv7hF+Ft3RrHx9vcbtbmlGfnKziGvbNzIjPCs15RV+MNpe7rD5XlImOjvaaqPP3KUu432Kv4vl9jD/+uhfMIbPT/KZ37IWfKSlQzGZz1Px+aILv3z/M/Yw/wsdvtQU/Nv+Iy+vxKdpcMf4N88df/V/z/SE3mhEPv2yWZ1sHqWN/N6nXNiq9Qs65+yYOMS8ePGWWjUk2Jf8Yufi4oUq1x1fif+q2f5cUIBU/Qi5JgwFzTZbZa57uF1fhvnWJfR4/2McHts/5tsjcPuFN0JcoeDrfrdRhBzR39kpVfoPjuD4Z20s9e/Y8l7s+VE7psEo/4p+YpoKCAq/Z+KgNlij4GL/rZJZOqJFaNLz4Hl10w5YlLSd08IR8/HwPdQ5rP+OP7PFXdYkaXMr78alQ+/9wl+76z9e09Iv/1TvP/FSDWzVS6w7JanjZDZrxz5NlR88yuas1+7k9Gjx1vLqEYZ1C9cdXRBJPs3ZK0lHtySmwWgLL7o8fbmwf5wnyEoVEDXlxu/7S8VF1ufl11ebTM6cvUdh29ga9e+BjdZzaUdc8v6fkT2qU2pT8/NfPHdaPWt+upVFdIvojcsYf2eP/4JifL+sas/NHXHU/PpXnbjlKf9n+rA7c1kX3hHSdQmDGj+rUbf+OufQjZFdjfeeVnfrfYS+rb/epWn9uVVGd2efxg318YPtE9vYJv9K/hH6k6re43S3vNEtPZpkFwxtVaA9swv0Wex2f39XY3PDyIWOOfmge/n5/c/V3HzTvZxuTvfC7pknpR9TefiaSwvjDm4gZv30/4grc8SnRDJ6XaU4uG2OSo7z1ByehOb7W99Rt/y4pQEyGOWbeGXON6Tfwh+aeWX8zR81x86fRrQOylMU+jx/s4wPbJ7K3T9jjtbEWqWqCPKbb4xtN3uZppoenfHugE+4NVPfndzXsZ37++jqTU7a476jZsGiS6d/IBqeossL4w5vIGL9dD5CBPT55uj5mNuRtMqndPV77A59QHV/re+q2f58rQM47Y7LSF5uZd3Q2DQL0j0/7PH6wjw9sn8jePmGP18ZapIoJajjUvJR1yiy7K9hfvgj3BnL8DkJINbHp/h/o45O7hRn58YnQfdkrZMfX+h6O7/4l2PPH9vEvzp6/oH3JLCapiXbMnaTJi7PE0jAAkSTgx6fib7RkykTN2dZESSH4BizHVwCoXtAK3IJ9SzRr+qvKcOKqZQC2FozjU96W1zRj1p+1LwRfYub4CgDVC8BZFNxq3G2gers2asWWEyq2WkPHy/PH9dSE6RPUM67sDl5EyRNdpPwqz6bko//MVi14Yo7Sc0tvhPv3B8IpDK+/gL5+gyCkxx8EVx32b1/bx9/9I9Ifv8LPB/vvI9unkojaPuEVgAIXAAAAiBxBv9ADAAAAEEoUuAAAAHCUoBW4nm5TlXFmk1K7B+r6lTHq8uh65W1KVcAeMowCPz++BHb+GH9tMf5IwvEJ/rD7/uP0/Z/tc6n6e3yqcN6wgMWdbEYvPRm480ImDjYvZJ4yy8Y45LyPgZ4fXwn0/DH+2oXxR1Y4PhF/Yvf9x+n7P9unYurv8clrY0DScOhL5uCpZWZMcpTX/prHbVqM/NicyJpvhjX01m/PBG5+fCU488f4axrGH4nh+ET8id33H6fv/2yf86nXxyevjYGJp5t5fGOe2ZTa3Xi89dc0nq7msQ15ZvO0Hv49TqQlUPPjK8GaP8ZfszD+yAzHJ+JP7L7/OH3/Z/ucS/0+PnltDFDcpuWoT8xJP//lkDhknskMyL9kIi2BmR9fCd78Mf6ahPFHajg+EX9i9/3H6fs/26c09fz45LUxcEkcYl486MfaD3dLM+qTAK5FibT4Oz++Euz5Y/zVh/FHdjg+EX9i9/3H6fs/26e+H5+8NgYwHtP1lxtM3qZU093jrb/6eLr+0mzM22ym9fB47bd//JsfXwn+/DH+6sL4Iz0cn4g/sfv+4/T9n+1Tz49PXhsDGnfLUeaTk1lm/rCGXvurTqIZ8uJBc2rZXSY5ylu/M1L3+fGV0Mwf468qjN8O4fhE/Ind9x+n7/9sn3p9fPLaGOAkmsHzMs3JZWNqNdHulneapSUbdsHwRl77nZO6zY+vhG7+GL+3MH67hOMT8Sd233+cvv+zfbz115N4bQx4PF0fMxvyNpnU7jV9q9xjuj2+0eRtnmZ61OGtebul9vPjK6GdP8Z/aRi/ncLxifgTu+8/Tt//2T71Nl4bAx93CzPy4xM1X+zccKh5KeuUWXZXHRdX2y21nR9fCfX8Mf6KYfz2Cscn4k/svv84ff9n+9TLlPzueqIkwWe+1e6vMhXVzKXta7bpRLHVXoWYllepS/5nmrNwub4psBqdrJbz40vI54/xV8D4bYbjE/xh9/3H6fs/26decpWktNIFAAAAHCE8BW5cT02YPkE946zblzqzVQuemKP0XOt2feNrfhQlT3SR8gutm5cK9/wxfsZvZxyf4A+77z9O3//ZPvUG7+ACAADAUdzWfwEAAABHoMAFAACAo1DgAgAAwFEocAEAAOAoFLgAAABwFApcAAAAOAoFLgAAAByFAhcAAACOQoELAAAAR6HABQAAgKNQ4AIAAMBRKHABAADgKBS4AAAAcBQKXAAAADgKBS4AAAAchQIXAAAAjkKBCwAAAEehwAUAAICjUOACAADAUShwAQAA4CgUuAAAAHAUClwAAAA4CgUuAAAAHIUCFwAAAI5CgQsAAABHocAFAACAo1DgAgAAwFEocAEAAOAoFLgAAABwFApcAAAAOAoFLgAAAByFAhcAAACOQoELAAAAR6HABQAAgKNQ4AIAAMBRKHABAADgKBS4AAAAcBQKXAAAADgKBS4AAAAchQIXAAAAjkKBCwAAAEehwAUAAICDSP8fgVp5AfCS1Z8AAAAASUVORK5CYII=;" parent="1" vertex="1">
          <mxGeometry x="10" y="347" width="480.52" height="223" as="geometry" />
        </mxCell>
        <mxCell id="JnTThAAoBRkZd4ELU4l4-16" value="&lt;font color=&quot;#15cf00&quot;&gt;Comandos [VersiÃ³n 10.0.19044.1889]&amp;nbsp; &amp;nbsp; &amp;nbsp; &amp;nbsp; &amp;nbsp; &amp;nbsp; &amp;nbsp; &amp;nbsp; &amp;nbsp; &amp;nbsp; &amp;nbsp; &amp;nbsp; &amp;nbsp; &amp;nbsp;(c) RubÃ©n S.L. Todos los derechos reservados.&lt;/font&gt;" style="text;html=1;strokeColor=none;fillColor=none;align=left;verticalAlign=middle;whiteSpace=wrap;rounded=0;fontSize=15;fontColor=#030303;" parent="1" vertex="1">
          <mxGeometry x="10" y="40" width="380" height="50" as="geometry" />
        </mxCell>
        <mxCell id="AoBqxXpZyk9LCzR_KWRd-1" value="&amp;nbsp;cd .." style="text;html=1;strokeColor=none;fillColor=none;align=left;verticalAlign=middle;whiteSpace=wrap;rounded=0;fontColor=#15CF00;" vertex="1" parent="1">
          <mxGeometry x="100" y="570" width="30" height="25" as="geometry" />
        </mxCell>
      </root>
    </mxGraphModel>
  </diagram>
</mxfile>
